<svg width="60" height="20" viewBox="0 0 60 20" fill="none" xmlns="http://www.w3.org/2000/svg">
  <rect width="60" height="20" rx="2" fill="#1434CB"/>
  <path d="M26.5 6.5L24 13.5H22L23.5 6.5H26.5ZM35.5 6.5L32.5 13.5H30.5L33.5 6.5H35.5ZM30 6.5C28.5 6.5 27.5 7 27 7.5L26 10.5L28.5 10L29 8.5C29.1 8.2 29.3 8 29.5 8H30.5L31.5 13.5H29L28 9.5C28 9.2 27.8 9 27.5 9H26.5L25.5 13.5H23L25 6.5H30ZM38.5 6.5L36 13.5H34L35.5 6.5H38.5ZM42 6.5C43.5 6.5 44.5 7 45 7.5L45.5 9.5C45.3 9.2 44.8 9 44 9C43 9 42.5 9.2 42.5 9.8C42.5 10.2 42.8 10.5 43.5 10.5C44.2 10.5 44.8 10.3 45.2 10L45.5 11.5C45 11.8 44.2 12 43.2 12C41.5 12 40.5 11.2 40.5 10C40.5 9.2 41 8.5 42 8.2C42.5 8 42.8 7.8 42.8 7.5C42.8 7 42.5 6.8 41.8 6.8C41 6.8 40.3 7 39.8 7.2L39.5 5.8C40 5.5 41 5.3 42 5.3C43.5 5.3 44.2 5.8 44.2 6.8C44.2 7.2 44 7.5 43.8 7.8H42ZM48 6.5C49.5 6.5 50.5 7 51 7.5L51.5 9.5C51.3 9.2 50.8 9 50 9C49 9 48.5 9.2 48.5 9.8C48.5 10.2 48.8 10.5 49.5 10.5C50.2 10.5 50.8 10.3 51.2 10L51.5 11.5C51 11.8 50.2 12 49.2 12C47.5 12 46.5 11.2 46.5 10C46.5 9.2 47 8.5 48 8.2C48.5 8 48.8 7.8 48.8 7.5C48.8 7 48.5 6.8 47.8 6.8C47 6.8 46.3 7 45.8 7.2L45.5 5.8C46 5.5 47 5.3 48 5.3C49.5 5.3 50.2 5.8 50.2 6.8C50.2 7.2 50 7.5 49.8 7.8H48Z" fill="white"/>
</svg>




